<svg width="326" height="100" viewBox="0 0 326 100" fill="none" xmlns="http://www.w3.org/2000/svg">
<rect width="326" height="100" rx="10" fill="#6842FF"/>
<path fill-rule="evenodd" clip-rule="evenodd" d="M213.784 37.2889C213.784 38.0592 214.039 38.6571 214.549 39.0824C215.058 39.5086 215.6 39.721 216.174 39.721C216.747 39.721 217.284 39.5535 217.785 39.2181C218.286 38.8832 218.691 38.7155 219.001 38.7155C219.547 38.7155 220.212 39.1958 220.994 40.1558C221.413 40.6816 221.622 41.1524 221.622 41.5689C221.622 42.2576 221.121 42.9004 220.12 43.4983C219.083 44.2231 217.808 44.5855 216.297 44.5855C214.604 44.5855 212.974 43.9787 211.409 42.7648C210.662 42.1848 210.052 41.4103 209.579 40.4408C209.105 39.472 208.869 38.4029 208.869 37.2345C208.869 36.0661 209.105 35.0062 209.579 34.0551C210.052 33.1042 210.662 32.3389 211.409 31.7587C212.919 30.5631 214.531 29.9651 216.242 29.9651C216.934 29.9651 217.608 30.0605 218.263 30.2505C218.919 30.4409 219.401 30.6266 219.711 30.8078L220.148 31.0794C220.475 31.297 220.73 31.469 220.913 31.5958C221.386 31.9582 221.622 32.37 221.622 32.8323C221.622 33.2943 221.431 33.8149 221.049 34.3945C220.393 35.3912 219.765 35.8892 219.164 35.8892C218.818 35.8892 218.327 35.6903 217.69 35.2916C217.362 34.9836 216.893 34.8296 216.283 34.8296C215.673 34.8296 215.105 35.0469 214.576 35.4816C214.048 35.9164 213.784 36.5189 213.784 37.2889" fill="white"/>
<path fill-rule="evenodd" clip-rule="evenodd" d="M233.174 30.2917C233.52 30.4001 233.807 30.5865 234.035 30.8487C234.262 31.1117 234.376 31.5328 234.376 32.1124C234.376 32.692 234.203 33.3263 233.858 34.0146C233.511 34.703 233.011 35.0471 232.356 35.0471C232.028 35.0471 231.714 34.9749 231.413 34.8301C231.113 34.685 230.717 34.6126 230.225 34.6126C229.734 34.6126 229.273 34.7849 228.846 35.1286C228.418 35.4733 228.204 35.8894 228.204 36.3786V42.0857C228.204 42.5025 228.19 42.8148 228.163 43.0231C228.136 43.2318 228.049 43.4714 227.904 43.743C227.63 44.2141 226.921 44.4497 225.774 44.4497C224.9 44.4497 224.271 44.296 223.889 43.9877C223.598 43.7344 223.433 43.3449 223.397 42.8193V42.0314V32.4928C223.397 32.0763 223.411 31.7637 223.438 31.5554C223.466 31.3473 223.543 31.1163 223.671 30.8621C223.925 30.3732 224.635 30.1285 225.801 30.1285C226.893 30.1285 227.576 30.3369 227.849 30.7536C228.049 31.0436 228.149 31.3424 228.149 31.6501C228.241 31.5236 228.372 31.3696 228.546 31.1884C228.718 31.0075 229.087 30.7628 229.651 30.4545C230.215 30.1468 230.712 29.9925 231.14 29.9925C231.568 29.9925 231.927 30.0158 232.219 30.0607C232.51 30.1062 232.829 30.1829 233.174 30.2917" fill="white"/>
<path fill-rule="evenodd" clip-rule="evenodd" d="M239.429 37.3026C239.429 37.9002 239.665 38.4395 240.139 38.9192C240.612 39.3995 241.186 39.639 241.859 39.639C242.532 39.639 243.093 39.3949 243.539 38.9054C243.985 38.4166 244.207 37.8776 244.207 37.2888C244.207 36.7001 243.994 36.1519 243.566 35.6444C243.138 35.1379 242.565 34.8836 241.846 34.8836C241.126 34.8836 240.544 35.1379 240.098 35.6444C239.652 36.1519 239.429 36.7047 239.429 37.3026M244.399 31.6498C244.508 30.6357 245.227 30.1283 246.556 30.1283C247.267 30.1283 247.794 30.1823 248.14 30.2914C248.486 30.3999 248.727 30.5902 248.864 30.8618C249.001 31.1338 249.083 31.3742 249.11 31.582C249.137 31.7904 249.151 32.1029 249.151 32.5197V42.0311C249.151 42.4475 249.137 42.7601 249.11 42.9682C249.083 43.1769 249.005 43.4167 248.878 43.6883C248.623 44.1598 248 44.3951 247.007 44.3951C246.015 44.3951 245.35 44.2725 245.013 44.0284C244.677 43.7837 244.481 43.4262 244.426 42.9547C243.752 43.9154 242.628 44.3951 241.054 44.3951C239.479 44.3951 238.017 43.6795 236.67 42.2483C235.323 40.8172 234.649 39.1548 234.649 37.2617C234.649 35.3688 235.328 33.711 236.684 32.2887C238.04 30.8667 239.528 30.1551 241.149 30.1551C241.768 30.1551 242.333 30.2642 242.843 30.4815C243.352 30.699 243.707 30.9028 243.908 31.0931C244.107 31.2832 244.271 31.469 244.399 31.6498" fill="white"/>
<path fill-rule="evenodd" clip-rule="evenodd" d="M258.518 39.6667H263.188C263.916 39.6667 264.44 39.7574 264.758 39.9383C265.076 40.1195 265.291 40.3826 265.4 40.7266C265.51 41.0709 265.564 41.5237 265.564 42.0853C265.564 42.6469 265.51 43.1 265.4 43.4437C265.291 43.7881 265.1 44.0282 264.827 44.1642C264.553 44.2999 264.312 44.3814 264.103 44.4086C263.894 44.4355 263.579 44.4493 263.161 44.4493H253.302C252.664 44.4493 252.109 44.214 251.636 43.7429C251.162 43.2723 250.926 42.7101 250.926 42.0581C250.926 41.4055 251.162 40.8488 251.636 40.3865C252.109 39.9249 252.838 39.2591 253.82 38.3892C254.804 37.52 255.696 36.7366 256.497 36.039C257.298 35.3418 257.735 34.9565 257.808 34.8838H253.957C252.92 34.8838 252.264 34.7121 251.991 34.3674C251.681 33.9693 251.527 33.4435 251.527 32.7915C251.527 32.1391 251.572 31.6546 251.664 31.3377C251.755 31.0209 251.863 30.785 251.991 30.631C252.118 30.4773 252.3 30.3551 252.537 30.2644C252.846 30.1739 253.32 30.1281 253.957 30.1281H262.833C263.47 30.1281 264.026 30.3551 264.499 30.8079C264.972 31.2607 265.209 31.8269 265.209 32.5061C265.209 33.1853 264.936 33.7878 264.39 34.3133C263.844 34.8389 261.886 36.6229 258.518 39.6667" fill="white"/>
<path fill-rule="evenodd" clip-rule="evenodd" d="M273.73 44.3951C271.891 44.3951 270.366 43.7019 269.156 42.3162C267.945 40.9303 267.339 39.2413 267.339 37.248V32.4926C267.339 32.0578 267.353 31.741 267.38 31.5417C267.408 31.3422 267.485 31.107 267.612 30.835C267.867 30.3462 268.577 30.1014 269.743 30.1014C271.016 30.1014 271.764 30.4458 271.982 31.1339C272.091 31.4238 272.146 31.8858 272.146 32.5198V37.2752C272.146 38.0182 272.36 38.5978 272.788 39.0146C273.215 39.4317 273.788 39.6394 274.508 39.6394C275.227 39.6394 275.809 39.4222 276.256 38.9874C276.702 38.5526 276.925 37.9819 276.925 37.2752V32.4654C276.925 32.0489 276.939 31.7364 276.966 31.528C276.994 31.3199 277.08 31.0795 277.226 30.8078C277.462 30.3367 278.163 30.1014 279.328 30.1014C280.475 30.1014 281.176 30.3462 281.431 30.835C281.558 31.107 281.636 31.3471 281.663 31.5552C281.691 31.7636 281.705 32.0761 281.705 32.4926V42.1125C281.705 42.3835 281.698 42.6105 281.686 42.7935C281.68 42.8797 281.705 47.0585 281.663 47.6571C281.649 47.8667 281.55 48.0964 281.404 48.3497C281.131 48.8212 280.43 49.0567 279.302 49.0567C278.191 49.0567 277.508 48.8389 277.253 48.4041C277.107 48.1578 277.019 47.8706 276.99 47.5428C276.983 47.4609 276.98 42.7428 276.98 42.656C276.907 42.7828 276.743 42.964 276.488 43.1996C276.233 43.4351 275.987 43.634 275.751 43.7975C275.131 44.1962 274.458 44.3951 273.73 44.3951" fill="white"/>
<path fill-rule="evenodd" clip-rule="evenodd" d="M213.539 57.1068C213.539 57.6956 213.771 58.2254 214.235 58.6965C214.699 59.1676 215.263 59.4032 215.928 59.4032C216.593 59.4032 217.143 59.1627 217.58 58.6827C218.018 58.2031 218.236 57.6775 218.236 57.1068C218.236 56.536 218.026 56.002 217.608 55.5033C217.189 55.0053 216.625 54.756 215.914 54.756C215.205 54.756 214.631 55.0004 214.194 55.4896C213.757 55.9793 213.539 56.5183 213.539 57.1068V57.1068ZM218.4 62.6639C217.708 63.5698 216.606 64.0226 215.095 64.0226C213.584 64.0226 212.168 63.3297 210.848 61.9438C209.528 60.5578 208.869 58.9412 208.869 57.093C208.869 55.2451 209.533 53.6243 210.862 52.2289C212.191 50.8341 213.648 50.1365 215.232 50.1365C215.85 50.1365 216.415 50.2499 216.925 50.4763C217.435 50.7027 217.785 50.9111 217.976 51.1011C218.167 51.2912 218.317 51.4681 218.427 51.6309C218.482 51.124 218.668 50.7388 218.987 50.4763C219.305 50.2135 219.82 50.0822 220.53 50.0822C221.24 50.0822 221.759 50.1365 222.086 50.245C222.414 50.3538 222.646 50.5398 222.783 50.802C222.92 51.0651 223.002 51.2958 223.029 51.495C223.056 51.6948 223.07 52.0025 223.07 52.4189V63.6694C223.07 65.7526 222.342 67.4334 220.885 68.7105C219.429 69.9877 217.789 70.6262 215.969 70.6262C214.586 70.6262 213.265 70.2907 212.009 69.6207C210.753 68.9504 210.125 68.3432 210.125 67.8C210.125 67.0936 210.398 66.4688 210.945 65.9249C211.29 65.5442 211.559 65.2818 211.75 65.1369C211.941 64.9918 212.164 64.9194 212.419 64.9194C212.674 64.9194 212.938 65.0282 213.211 65.2454C214.085 65.9154 215.031 66.2509 216.051 66.2509C216.743 66.2509 217.307 65.9793 217.744 65.4361C218.181 64.8922 218.4 64.2402 218.4 63.4791V62.6639Z" fill="white"/>
<path fill-rule="evenodd" clip-rule="evenodd" d="M229.624 57.3104C229.624 57.9083 229.861 58.4476 230.335 58.9273C230.808 59.4073 231.381 59.6471 232.055 59.6471C232.729 59.6471 233.289 59.403 233.735 58.9135C234.181 58.4244 234.404 57.8857 234.404 57.2966C234.404 56.7082 234.189 56.1597 233.762 55.6525C233.334 55.1457 232.76 54.8917 232.042 54.8917C231.322 54.8917 230.739 55.1457 230.294 55.6525C229.847 56.1597 229.624 56.7128 229.624 57.3104M234.595 51.6579C234.704 50.6439 235.423 50.1364 236.753 50.1364C237.462 50.1364 237.991 50.1904 238.337 50.2992C238.682 50.408 238.924 50.598 239.06 50.8699C239.197 51.1419 239.278 51.382 239.306 51.5898C239.334 51.7985 239.347 52.111 239.347 52.5275V62.0389C239.347 62.4557 239.334 62.7682 239.306 62.9763C239.278 63.1847 239.201 63.4248 239.074 63.6964C238.819 64.1676 238.195 64.4032 237.203 64.4032C236.21 64.4032 235.546 64.2803 235.209 64.0362C234.872 63.7915 234.677 63.434 234.622 62.9628C233.949 63.9232 232.824 64.4032 231.249 64.4032C229.674 64.4032 228.213 63.6873 226.866 62.2561C225.518 60.825 224.846 59.1626 224.846 57.2694C224.846 55.3766 225.523 53.7191 226.88 52.2965C228.236 50.8748 229.725 50.1632 231.345 50.1632C231.964 50.1632 232.528 50.272 233.038 50.4892C233.548 50.7071 233.903 50.9109 234.103 51.1009C234.304 51.291 234.467 51.4771 234.595 51.6579" fill="white"/>
<path fill-rule="evenodd" clip-rule="evenodd" d="M246.229 52.0383C247.084 50.7523 248.113 50.1092 249.315 50.1092C251.172 50.1092 252.555 50.8971 253.466 52.4734C253.666 52.2015 253.907 51.9164 254.189 51.6173C254.472 51.3185 254.922 50.9919 255.541 50.639C256.16 50.2858 256.798 50.1092 257.453 50.1092C258.91 50.1092 260.129 50.6662 261.112 51.7801C262.096 52.8944 262.587 54.7381 262.587 57.3104V62.0658C262.587 62.4832 262.573 62.7954 262.546 63.0035C262.519 63.2119 262.432 63.4517 262.287 63.7236C262.05 64.2128 261.349 64.4572 260.184 64.4572C259.037 64.4572 258.336 64.2036 258.081 63.6964C257.954 63.4248 257.876 63.1844 257.849 62.9763C257.822 62.7682 257.808 62.4557 257.808 62.0386V57.2829C257.808 55.7072 257.244 54.9189 256.115 54.9189C255.477 54.9189 255.045 55.1273 254.818 55.5441C254.589 55.9608 254.476 56.5493 254.476 57.3104V62.0658C254.476 62.5006 254.462 62.8177 254.436 63.0169C254.408 63.2167 254.321 63.4517 254.176 63.7236C253.921 64.2128 253.21 64.4572 252.045 64.4572C250.899 64.4572 250.198 64.2036 249.943 63.6964C249.815 63.4248 249.738 63.1844 249.711 62.9763C249.684 62.7682 249.669 62.4557 249.669 62.0386V57.2829C249.669 55.7072 249.105 54.9189 247.976 54.9189C246.884 54.9189 246.338 55.7072 246.338 57.2829V62.093C246.338 62.51 246.324 62.8223 246.297 63.0307C246.27 63.2391 246.183 63.4789 246.038 63.7505C245.764 64.222 245.054 64.4572 243.907 64.4572C242.76 64.4572 242.059 64.2128 241.804 63.7236C241.677 63.4517 241.599 63.2167 241.572 63.0169C241.545 62.8177 241.531 62.5006 241.531 62.0658V52.5003C241.531 52.0839 241.545 51.7713 241.572 51.5626C241.599 51.3548 241.685 51.1239 241.831 50.87C242.104 50.3808 242.751 50.136 243.77 50.136C244.79 50.136 245.454 50.2992 245.764 50.6252C246.073 50.9515 246.229 51.4227 246.229 52.0383" fill="white"/>
<path fill-rule="evenodd" clip-rule="evenodd" d="M280.53 63.1801C280.184 62.9628 280.011 62.6188 280.011 62.1474C280.011 61.6765 280.357 60.961 281.049 60.0007C281.249 59.6927 281.572 59.5387 282.018 59.5387C282.465 59.5387 283.07 59.7608 283.834 60.2048C284.599 60.6487 285.291 60.8702 285.91 60.8702C287.021 60.8702 287.576 60.653 287.576 60.2182C287.576 59.8742 286.965 59.6203 285.746 59.4571C284.599 59.2939 283.461 58.8686 282.333 58.18C281.804 57.8536 281.367 57.3425 281.021 56.6446C280.676 55.9474 280.502 55.1185 280.502 54.1582C280.502 51.2959 282.478 49.8644 286.429 49.8644C287.722 49.8644 289.051 50.1727 290.416 50.7881C291.053 51.0786 291.372 51.4407 291.372 51.8755C291.372 52.3103 291.172 52.845 290.771 53.4789C290.37 54.1129 289.961 54.4298 289.542 54.4298C289.324 54.4298 288.918 54.2938 288.327 54.0219C287.735 53.7506 287.093 53.6146 286.402 53.6146C285.327 53.6146 284.79 53.8141 284.79 54.2125C284.79 54.7558 285.409 55.1093 286.647 55.2721C287.849 55.3992 289.014 55.7436 290.143 56.3049C290.671 56.5588 291.113 56.9978 291.468 57.623C291.823 58.2475 292 59.0318 292 59.9738C292 60.9157 291.823 61.7172 291.468 62.3784C291.113 63.0401 290.617 63.5333 289.979 63.8596C288.814 64.4212 287.353 64.702 285.596 64.702C283.839 64.702 282.15 64.1948 280.53 63.1801" fill="white"/>
<path fill-rule="evenodd" clip-rule="evenodd" d="M272.883 56.3863C273.575 56.3863 273.921 56.0966 273.921 55.5164C273.921 55.1003 273.761 54.7651 273.443 54.5112C273.125 54.2576 272.67 54.1308 272.078 54.1308C271.486 54.1308 270.899 54.371 270.317 54.851C269.733 55.3313 269.443 55.843 269.443 56.3863H272.883ZM278.646 55.5846C278.646 56.6989 278.368 57.5238 277.813 58.0576C277.257 58.5923 276.643 58.8593 275.969 58.8593H269.497C269.497 59.3668 269.797 59.7924 270.398 60.1365C270.999 60.4808 271.599 60.6528 272.2 60.6528C273.257 60.6528 274.085 60.5441 274.686 60.3265L274.987 60.218C275.423 60.0188 275.787 59.9192 276.079 59.9192C276.661 59.9192 277.162 60.3265 277.581 61.142C277.817 61.6312 277.936 62.0482 277.936 62.392C277.936 64.0049 275.997 64.8103 272.119 64.8103C270.771 64.8103 269.575 64.5793 268.528 64.1176C267.48 63.6557 266.666 63.044 266.083 62.2832C264.936 60.8157 264.363 59.1765 264.363 57.3646C264.363 55.0819 265.104 53.2573 266.588 51.8888C268.072 50.5215 269.924 49.8371 272.146 49.8371C274.676 49.8371 276.534 50.7253 277.717 52.5002C278.336 53.4424 278.646 54.4706 278.646 55.5846V55.5846Z" fill="white"/>
<path fill-rule="evenodd" clip-rule="evenodd" d="M193.969 26.7377C193.717 26.4504 193.391 26.3278 193.02 26.3278L193.016 26.3418C191.636 26.3418 189.6 28.0305 188.175 29.4039C185.172 27.9394 181.483 27.2212 177.002 27.2212C172.521 27.2212 168.832 27.9394 165.833 29.4004C164.407 28.027 162.371 26.3383 160.994 26.3383C160.62 26.3383 160.297 26.461 160.045 26.7482C157.901 29.2077 157.698 35.0971 157.775 38.4884C156.808 41.1371 156.317 44.2342 156.317 47.7727C156.317 55.2071 158.447 60.7146 162.641 64.1585C165.468 66.4743 169.158 67.8092 173.859 68.2086C173.662 68.3064 173.463 68.4037 173.261 68.5022C172.899 68.6789 172.529 68.8594 172.153 69.0529L170.45 69.8867L169.483 70.3597C169.215 70.4994 168.945 70.6348 168.671 70.7718C167.984 71.1158 167.278 71.4697 166.533 71.9258L166.278 72.0589C166.204 72.1115 166.138 72.1991 166.124 72.3007C166.089 72.4898 166.218 72.6685 166.407 72.6966C166.703 72.7402 166.998 72.7887 167.293 72.8372C167.944 72.9441 168.595 73.051 169.256 73.1065L169.974 73.187C170.212 73.2116 170.447 73.2326 170.692 73.2466L172.132 73.3272C172.356 73.3342 172.581 73.3342 172.805 73.3342C174.511 73.3342 176.224 73.2186 177.92 72.9523C179.84 72.6615 181.728 72.1255 183.539 71.3792C185.347 70.633 187.071 69.659 188.634 68.4783C191.731 66.0714 194.166 62.8342 195.612 59.2291C196.142 57.9223 196.541 56.5665 196.821 55.1896C197.396 52.9789 197.687 50.5054 197.687 47.7657C197.687 44.2377 197.2 41.1476 196.236 38.499C196.317 35.1111 196.117 29.2007 193.969 26.7377ZM187.922 27.8133C190.01 25.9214 191.685 25 193.02 25C193.801 25 194.474 25.2978 194.975 25.8689C197.259 28.486 197.655 34.0145 197.574 38.2852C198.534 41.0285 199.021 44.2167 199.021 47.7657C199.021 50.579 198.72 53.1786 198.121 55.4874C197.813 56.9729 197.385 58.3988 196.849 59.7196C195.301 63.577 192.743 66.9648 189.439 69.5294C187.807 70.7626 185.995 71.7962 184.051 72.5985C182.107 73.3973 180.113 73.9543 178.134 74.2521C176.455 74.5184 174.665 74.6515 172.812 74.6515C172.581 74.6515 172.346 74.6515 172.115 74.6445H172.062L170.622 74.5639C170.356 74.5499 170.097 74.5289 169.83 74.4973L169.13 74.4203C168.455 74.3641 167.803 74.258 167.169 74.1549C167.131 74.1488 167.093 74.1426 167.056 74.1365L167.054 74.1362C166.774 74.0907 166.494 74.0453 166.225 74.0034C165.78 73.9403 165.374 73.695 165.111 73.3307C164.852 72.9733 164.747 72.5214 164.817 72.0869C164.887 71.649 165.136 71.2461 165.507 70.9763L165.584 70.9203L165.668 70.8747L165.885 70.7626C166.66 70.2897 167.374 69.9323 168.068 69.5855L168.068 69.5854C168.114 69.5627 168.159 69.54 168.204 69.5174C168.431 69.4042 168.655 69.2923 168.877 69.1755L168.891 69.1685L168.905 69.1615L169.522 68.8602C166.484 68.1385 163.937 66.9193 161.807 65.1745C157.291 61.4608 155 55.603 155 47.7622C155 44.2026 155.49 41.0075 156.454 38.2607C156.373 33.997 156.773 28.4825 159.054 25.8654C159.548 25.2978 160.224 25 161.001 25C162.336 25 164.011 25.9214 166.096 27.8098C169.123 26.5135 172.7 25.8794 177.005 25.8794C181.311 25.8794 184.895 26.5135 187.922 27.8133ZM177.009 34.6416C181.413 34.6416 184.555 35.4684 186.605 37.1536C189.026 39.1506 190.21 42.6226 190.21 47.7657C190.21 58.6616 184.934 60.8898 177.009 60.8898C169.084 60.8898 163.808 58.6581 163.808 47.7657C163.808 42.6261 164.985 39.1471 167.413 37.1536C169.462 35.4614 172.605 34.6416 177.009 34.6416ZM172.468 53.1085C173.985 53.1085 175.226 51.8788 175.226 50.3723V47.1526C175.152 47.1596 175.075 47.1631 174.998 47.1631C173.779 47.1631 172.794 46.1856 172.794 44.9769C172.794 43.9959 173.442 43.1656 174.336 42.8888C173.845 42.4369 173.19 42.1566 172.468 42.1566C170.951 42.1566 169.711 43.3863 169.711 44.8928V50.3723C169.711 51.8753 170.951 53.1085 172.468 53.1085ZM181.546 53.1085C183.063 53.1085 184.303 51.8788 184.303 50.3723V46.9389C184.195 46.9564 184.086 46.9669 183.974 46.9669C182.755 46.9669 181.77 45.9894 181.77 44.7807C181.77 43.8348 182.376 43.0325 183.221 42.7277C182.755 42.3703 182.177 42.1566 181.546 42.1566C180.029 42.1566 178.789 43.3863 178.789 44.8928V50.3723C178.789 51.8753 180.029 53.1085 181.546 53.1085Z" fill="white"/>
<path d="M33.524 60.261C32.6733 60.261 32.016 60.029 31.552 59.565C31.088 59.0817 30.856 58.4147 30.856 57.564V42.252C30.856 41.382 31.088 40.715 31.552 40.251C32.0353 39.787 32.7023 39.555 33.553 39.555H40.687C43.007 39.555 44.7953 40.1543 46.052 41.353C47.328 42.5323 47.966 44.166 47.966 46.254C47.966 48.342 47.328 49.9853 46.052 51.184C44.7953 52.3633 43.007 52.953 40.687 52.953H36.192V57.564C36.192 58.4147 35.9697 59.0817 35.525 59.565C35.0803 60.029 34.4133 60.261 33.524 60.261ZM36.192 48.864H39.759C40.7643 48.864 41.5377 48.6513 42.079 48.226C42.6203 47.7813 42.891 47.124 42.891 46.254C42.891 45.3647 42.6203 44.7073 42.079 44.282C41.5377 43.8567 40.7643 43.644 39.759 43.644H36.192V48.864ZM55.5287 60.319C53.6727 60.319 52.3 59.826 51.4107 58.84C50.5407 57.8347 50.1057 56.3267 50.1057 54.316V41.904C50.1057 41.0533 50.328 40.4057 50.7727 39.961C51.2173 39.5163 51.8457 39.294 52.6577 39.294C53.489 39.294 54.127 39.5163 54.5717 39.961C55.0357 40.4057 55.2677 41.0533 55.2677 41.904V54.142C55.2677 54.8573 55.403 55.3793 55.6737 55.708C55.9637 56.0367 56.331 56.201 56.7757 56.201C56.911 56.201 57.0463 56.1913 57.1817 56.172C57.3363 56.1333 57.5007 56.1043 57.6747 56.085C58.0033 56.085 58.245 56.2107 58.3997 56.462C58.5737 56.7133 58.6607 57.2257 58.6607 57.999C58.6607 58.6757 58.5253 59.188 58.2547 59.536C57.984 59.8647 57.5683 60.0773 57.0077 60.174C56.853 60.1933 56.6307 60.2223 56.3407 60.261C56.0507 60.2997 55.78 60.319 55.5287 60.319ZM65.1467 60.319C64.0447 60.319 63.0684 60.116 62.2177 59.71C61.3864 59.304 60.729 58.753 60.2457 58.057C59.7817 57.3417 59.5497 56.5297 59.5497 55.621C59.5497 54.577 59.8204 53.7553 60.3617 53.156C60.903 52.5567 61.773 52.1313 62.9717 51.88C64.1704 51.6093 65.7654 51.474 67.7567 51.474H69.3517V53.91H67.7567C67.0027 53.91 66.3744 53.968 65.8717 54.084C65.3884 54.1807 65.0307 54.345 64.7987 54.577C64.5667 54.7897 64.4507 55.07 64.4507 55.418C64.4507 55.8627 64.6054 56.23 64.9147 56.52C65.2434 56.81 65.7074 56.955 66.3067 56.955C66.79 56.955 67.2154 56.8487 67.5827 56.636C67.9694 56.4233 68.2787 56.1333 68.5107 55.766C68.7427 55.3793 68.8587 54.9347 68.8587 54.432V51.068C68.8587 50.372 68.675 49.879 68.3077 49.589C67.9597 49.299 67.3507 49.154 66.4807 49.154C66.0167 49.154 65.4947 49.212 64.9147 49.328C64.3347 49.4247 63.687 49.6083 62.9717 49.879C62.4497 50.0723 62.005 50.1013 61.6377 49.966C61.2704 49.8307 60.9804 49.5987 60.7677 49.27C60.5744 48.9413 60.4777 48.5837 60.4777 48.197C60.497 47.8103 60.6227 47.443 60.8547 47.095C61.106 46.747 61.483 46.4763 61.9857 46.283C62.9137 45.935 63.7644 45.703 64.5377 45.587C65.3304 45.471 66.0554 45.413 66.7127 45.413C68.298 45.413 69.603 45.645 70.6277 46.109C71.6717 46.5537 72.445 47.2497 72.9477 48.197C73.4697 49.125 73.7307 50.3237 73.7307 51.793V57.651C73.7307 58.5017 73.5277 59.1493 73.1217 59.594C72.7157 60.0387 72.126 60.261 71.3527 60.261C70.56 60.261 69.951 60.0387 69.5257 59.594C69.1197 59.1493 68.9167 58.5017 68.9167 57.651V56.897L69.0907 57.303C68.994 57.9217 68.7717 58.4533 68.4237 58.898C68.0757 59.3427 67.6214 59.6907 67.0607 59.942C66.5 60.1933 65.862 60.319 65.1467 60.319ZM80.6755 65.481C80.0762 65.481 79.5928 65.3263 79.2255 65.017C78.8582 64.7077 78.6262 64.3017 78.5295 63.799C78.4522 63.2963 78.5392 62.7647 78.7905 62.204L80.7335 57.999V60.087L75.7745 48.748C75.5232 48.168 75.4362 47.6267 75.5135 47.124C75.6102 46.6213 75.8712 46.225 76.2965 45.935C76.7218 45.6257 77.3018 45.471 78.0365 45.471C78.6552 45.471 79.1482 45.616 79.5155 45.906C79.9022 46.1767 80.2502 46.718 80.5595 47.53L83.4595 55.07H82.4735L85.5475 47.501C85.8568 46.7083 86.2048 46.1767 86.5915 45.906C86.9975 45.616 87.5388 45.471 88.2155 45.471C88.7955 45.471 89.2595 45.6257 89.6075 45.935C89.9555 46.225 90.1682 46.6213 90.2455 47.124C90.3228 47.6267 90.2358 48.168 89.9845 48.748L83.4015 63.538C83.0535 64.3113 82.6668 64.8237 82.2415 65.075C81.8355 65.3457 81.3135 65.481 80.6755 65.481ZM107.737 60.319C106.151 60.319 104.769 60.0193 103.59 59.42C102.41 58.8207 101.492 57.9603 100.835 56.839C100.177 55.7177 99.8488 54.3933 99.8488 52.866C99.8488 51.706 100.032 50.6717 100.4 49.763C100.767 48.835 101.299 48.052 101.995 47.414C102.691 46.7567 103.522 46.2637 104.489 45.935C105.455 45.587 106.538 45.413 107.737 45.413C109.322 45.413 110.704 45.7127 111.884 46.312C113.063 46.9113 113.972 47.7717 114.61 48.893C115.267 49.995 115.596 51.3193 115.596 52.866C115.596 54.0067 115.412 55.041 115.045 55.969C114.677 56.897 114.146 57.6897 113.45 58.347C112.773 58.985 111.942 59.478 110.956 59.826C109.989 60.1547 108.916 60.319 107.737 60.319ZM107.737 56.52C108.259 56.52 108.723 56.3943 109.129 56.143C109.535 55.8723 109.844 55.476 110.057 54.954C110.289 54.4127 110.405 53.7167 110.405 52.866C110.405 51.5707 110.153 50.6427 109.651 50.082C109.148 49.502 108.51 49.212 107.737 49.212C107.215 49.212 106.751 49.3377 106.345 49.589C105.939 49.8403 105.62 50.2367 105.388 50.778C105.156 51.3 105.04 51.996 105.04 52.866C105.04 54.142 105.291 55.07 105.794 55.65C106.296 56.23 106.944 56.52 107.737 56.52ZM120.513 60.261C119.701 60.261 119.073 60.0387 118.628 59.594C118.183 59.1493 117.961 58.5017 117.961 57.651V48.052C117.961 47.2207 118.174 46.5827 118.599 46.138C119.044 45.6933 119.672 45.471 120.484 45.471C121.296 45.471 121.915 45.6933 122.34 46.138C122.765 46.5827 122.978 47.2207 122.978 48.052V49.415L122.659 48.226C123.123 47.3173 123.78 46.6213 124.631 46.138C125.501 45.6547 126.487 45.413 127.589 45.413C128.73 45.413 129.667 45.6353 130.402 46.08C131.137 46.5053 131.688 47.182 132.055 48.11C132.422 49.0187 132.606 50.169 132.606 51.561V57.651C132.606 58.5017 132.384 59.1493 131.939 59.594C131.494 60.0387 130.856 60.261 130.025 60.261C129.194 60.261 128.556 60.0387 128.111 59.594C127.666 59.1493 127.444 58.5017 127.444 57.651V51.764C127.444 50.894 127.289 50.2753 126.98 49.908C126.69 49.5407 126.255 49.357 125.675 49.357C124.902 49.357 124.283 49.6083 123.819 50.111C123.355 50.5943 123.123 51.2517 123.123 52.083V57.651C123.123 59.391 122.253 60.261 120.513 60.261Z" fill="#F9FAFF"/>
</svg>
