<svg width="327" height="100" viewBox="0 0 327 100" fill="none" xmlns="http://www.w3.org/2000/svg">
<rect width="327" height="100" rx="10" fill="white"/>
<g clip-path="url(#clip0_2_4)">
<path d="M91 50.5C91 29.237 73.9868 12 53 12C32.0132 12 15 29.237 15 50.5C15 71.763 32.0132 89 53 89C73.9868 89 91 71.763 91 50.5Z" fill="white"/>
<mask id="mask0_2_4" style="mask-type:luminance" maskUnits="userSpaceOnUse" x="15" y="12" width="76" height="77">
<path d="M52.9838 88.9671C73.9617 88.9671 90.9676 71.7375 90.9676 50.4836C90.9676 29.2297 73.9617 12 52.9838 12C32.0059 12 15 29.2297 15 50.4836C15 71.7375 32.0059 88.9671 52.9838 88.9671Z" fill="white"/>
</mask>
<g mask="url(#mask0_2_4)">
<path d="M15 12H90.9676V88.9671H15V12Z" fill="#4E1BBC"/>
<path d="M68.419 12H37.5486C25.0953 12 15 22.2282 15 34.8452V66.1219C15 78.739 25.0953 88.9671 37.5486 88.9671H68.419C80.8722 88.9671 90.9676 78.739 90.9676 66.1219V34.8452C90.9676 22.2282 80.8722 12 68.419 12Z" fill="#4E1BBC"/>
<path d="M24.5995 42.1921L24.9448 43.1367C21.3265 44.6427 17.7123 46.1587 14.1022 47.6848C9.26789 63.7429 15.7597 91.2062 19.3854 104.116C19.9785 106.192 21.2083 108.023 22.8969 109.344C24.5855 110.665 26.6452 111.407 28.7777 111.463C31.2757 111.553 33.7241 110.741 35.6852 109.171C37.6462 107.6 38.9921 105.375 39.4823 102.891L45.6633 71.7545C48.9782 69.5155 52.9147 67.1015 56.4368 65.6671C59.8899 64.2677 64.6552 63.0432 68.937 62.1686L94.835 80.1859C96.8902 81.6122 99.3778 82.2543 101.856 81.9981C104.334 81.7419 106.643 80.604 108.371 78.7865C109.873 77.2492 110.85 75.2659 111.161 73.1261C111.471 70.9862 111.099 68.8018 110.098 66.8916C103.848 55.0666 89.6209 30.752 75.118 22.6355L65.553 26.4838L65.2076 25.5392L24.565 42.1921H24.5995Z" fill="url(#paint0_linear_2_4)"/>
<g filter="url(#filter0_d_2_4)">
<path fill-rule="evenodd" clip-rule="evenodd" d="M95.5947 30.4721C94.5008 27.6067 92.8552 24.9905 90.7537 22.7757C88.6522 20.5609 86.1367 18.7919 83.3538 17.5717C80.5709 16.3514 77.5762 15.7043 74.5441 15.6681C71.512 15.6318 68.503 16.2072 65.6925 17.3606C62.8819 18.514 60.326 20.2224 58.1735 22.3863C56.021 24.5502 54.3149 27.1264 53.1546 29.9649C51.9944 32.8033 51.4031 35.8473 51.4153 38.9195C51.4274 41.9917 52.0428 45.0308 53.2255 47.8597C55.5657 53.4573 59.9843 57.8983 65.5278 60.2243C71.0713 62.5503 77.2952 62.5748 82.8564 60.2926C88.4176 58.0104 92.8702 53.6044 95.2533 48.0254C97.6365 42.4465 97.7591 36.1419 95.5947 30.4721Z" fill="url(#paint1_linear_2_4)"/>
<path fill-rule="evenodd" clip-rule="evenodd" d="M47.1826 50.3436C49.4584 56.0407 49.4072 62.4204 47.0403 68.0792C44.6734 73.7381 40.1847 78.2125 34.5616 80.5182C31.7774 81.6599 28.7984 82.2348 25.7949 82.2101C22.7913 82.1854 19.822 81.5615 17.0564 80.3741C11.471 77.9761 7.05469 73.4283 4.7789 67.7312C2.50311 62.0341 2.55429 55.6545 4.92118 49.9956C7.28807 44.3368 11.7768 39.8623 17.3999 37.5566C23.023 35.2509 29.3198 35.3027 34.9051 37.7007C40.4905 40.0988 44.9068 44.6466 47.1826 50.3436Z" fill="url(#paint2_linear_2_4)"/>
</g>
<path fill-rule="evenodd" clip-rule="evenodd" d="M95.5947 30.4721C94.5008 27.6067 92.8552 24.9905 90.7537 22.7757C88.6522 20.5609 86.1367 18.7919 83.3538 17.5717C80.5709 16.3514 77.5762 15.7043 74.5441 15.6681C71.512 15.6318 68.503 16.2072 65.6925 17.3606C62.8819 18.514 60.326 20.2224 58.1735 22.3863C56.021 24.5502 54.3149 27.1264 53.1546 29.9649C51.9944 32.8033 51.4031 35.8473 51.4153 38.9195C51.4274 41.9917 52.0428 45.0308 53.2255 47.8597C55.5657 53.4573 59.9843 57.8983 65.5278 60.2243C71.0713 62.5503 77.2952 62.5748 82.8564 60.2926C88.4176 58.0104 92.8702 53.6044 95.2533 48.0254C97.6365 42.4465 97.7591 36.1419 95.5947 30.4721Z" fill="url(#paint3_linear_2_4)"/>
<path fill-rule="evenodd" clip-rule="evenodd" d="M47.1826 50.3436C49.4584 56.0407 49.4072 62.4204 47.0403 68.0792C44.6734 73.7381 40.1847 78.2125 34.5616 80.5182C31.7774 81.6599 28.7984 82.2348 25.7949 82.2101C22.7913 82.1854 19.822 81.5615 17.0564 80.3741C11.471 77.9761 7.05469 73.4283 4.7789 67.7312C2.50311 62.0341 2.55429 55.6545 4.92118 49.9956C7.28807 44.3368 11.7768 39.8623 17.3999 37.5566C23.023 35.2509 29.3198 35.3027 34.9051 37.7007C40.4905 40.0988 44.9068 44.6466 47.1826 50.3436Z" fill="url(#paint4_linear_2_4)"/>
<path d="M33.8192 52.2328C34.615 51.9517 35.4871 51.9917 36.2546 52.3445C37.0221 52.6973 37.6261 53.3359 37.9414 54.1277C38.2567 54.9196 38.2591 55.804 37.9481 56.5976C37.637 57.3913 37.0365 58.0331 36.2709 58.3902L30.228 60.8741L32.6452 66.9965C32.8644 67.4076 32.9955 67.8608 33.0301 68.3267C33.0647 68.7926 33.002 69.2607 32.846 69.7003C32.6901 70.14 32.4444 70.5414 32.1249 70.8784C31.8055 71.2153 31.4195 71.4803 30.9922 71.6559C30.5649 71.8316 30.1059 71.914 29.645 71.8977C29.1842 71.8815 28.7319 71.767 28.3176 71.5617C27.9034 71.3565 27.5365 71.065 27.2409 70.7064C26.9454 70.3478 26.7278 69.93 26.6023 69.4805L24.1852 63.3581L18.1077 65.842C17.3305 66.0647 16.4994 65.989 15.7739 65.6294C15.0483 65.2698 14.4791 64.6517 14.1754 63.8933C13.8718 63.135 13.8549 62.2898 14.1281 61.5197C14.4013 60.7495 14.9454 60.1086 15.6561 59.7196L21.6989 57.2357L19.2818 51.0783C19.0812 50.2954 19.1693 49.4653 19.5295 48.7435C19.8898 48.0217 20.4975 47.4578 21.2387 47.1574C21.9799 46.857 22.8038 46.8408 23.556 47.1118C24.3082 47.3827 24.937 47.9223 25.3247 48.6294L27.7418 54.7517L33.8192 52.2678V52.2328Z" fill="url(#paint5_linear_2_4)"/>
<path fill-rule="evenodd" clip-rule="evenodd" d="M72.6663 34.3904C73.2586 34.1863 73.8035 33.8618 74.2676 33.4367C74.7316 33.0116 75.1051 32.4949 75.365 31.9183C75.6249 31.3417 75.7658 30.7174 75.7791 30.0837C75.7923 29.45 75.6776 28.8202 75.442 28.233C75.2064 27.6458 74.8549 27.1136 74.409 26.6689C73.9631 26.2243 73.4322 25.8767 72.849 25.6474C72.2657 25.4181 71.6424 25.3119 71.0171 25.3354C70.3919 25.3589 69.7781 25.5116 69.2132 25.7841C68.0822 26.248 67.1794 27.1482 66.7034 28.2865C66.2274 29.4248 66.2173 30.7081 66.6752 31.854C67.1331 32.9999 68.0216 33.9146 69.1451 34.3968C70.2686 34.8791 71.5352 34.8894 72.6663 34.4254V34.3904ZM67.314 47.195C67.9063 46.9909 68.4512 46.6663 68.9153 46.2412C69.3794 45.8161 69.7528 45.2994 70.0128 44.7228C70.2727 44.1463 70.4136 43.522 70.4268 42.8882C70.4401 42.2545 70.3254 41.6247 70.0898 41.0375C69.8542 40.4503 69.5026 39.9181 69.0567 39.4735C68.6108 39.0288 68.08 38.6812 67.4967 38.4519C66.9134 38.2226 66.2901 38.1164 65.6649 38.14C65.0397 38.1635 64.4258 38.3162 63.8609 38.5886C62.803 39.099 61.9776 39.9997 61.5537 41.1065C61.1298 42.2132 61.1395 43.4422 61.5808 44.542C62.022 45.6417 62.8615 46.529 63.9273 47.0222C64.9931 47.5154 66.2047 47.5772 67.314 47.195ZM87.8253 33.7607C88.0942 34.333 88.2449 34.955 88.2681 35.5884C88.2913 36.2218 88.1866 36.8534 87.9602 37.4443C87.7339 38.0352 87.3908 38.5731 86.9519 39.0249C86.5131 39.4766 85.9878 39.8328 85.4082 40.0715C84.8286 40.3102 84.207 40.4264 83.5815 40.413C82.956 40.3996 82.3398 40.2568 81.7707 39.9935C81.2016 39.7301 80.6917 39.3518 80.2721 38.8816C79.8525 38.4114 79.5321 37.8593 79.3307 37.2592C78.9534 36.1353 79.0144 34.9078 79.5012 33.8279C79.988 32.7481 80.8638 31.8976 81.9492 31.4505C83.0347 31.0035 84.2478 30.9937 85.3401 31.4231C86.4325 31.8526 87.3215 32.6889 87.8253 33.7607ZM79.9523 52.6526C81.0833 52.1887 81.9861 51.2886 82.4621 50.1502C82.938 49.0119 82.9482 47.7286 82.4903 46.5827C82.0324 45.4368 81.1439 44.5221 80.0204 44.0399C78.8968 43.5577 77.6302 43.5474 76.4992 44.0113C75.4413 44.5217 74.6159 45.4224 74.192 46.5291C73.7681 47.6359 73.7778 48.8649 74.219 49.9647C74.6602 51.0644 75.4997 51.9517 76.5655 52.4449C77.6313 52.9381 78.8429 52.9999 79.9523 52.6177V52.6526Z" fill="url(#paint6_linear_2_4)"/>
</g>
</g>
<path d="M114.988 67.19V77H110.38V66.866L102.46 51.908H107.536L112.81 62.816L117.868 51.908H122.908L114.988 67.19ZM125.762 77.504C124.694 77.504 123.794 77.264 123.062 76.784C122.33 76.304 121.778 75.656 121.406 74.84C121.046 74.024 120.866 73.112 120.866 72.104C120.866 71.228 121.154 70.358 121.73 69.494C122.318 68.618 123.356 67.874 124.844 67.262C126.332 66.65 128.342 66.344 130.874 66.344V65.516C130.874 64.532 130.634 63.77 130.154 63.23C129.686 62.69 128.858 62.42 127.67 62.42C126.734 62.42 125.816 62.582 124.916 62.906C124.028 63.218 123.374 63.608 122.954 64.076L121.514 60.62C122.33 60.068 123.344 59.6 124.556 59.216C125.768 58.832 127.058 58.64 128.426 58.64C130.142 58.64 131.498 58.904 132.494 59.432C133.502 59.96 134.21 60.704 134.618 61.664C135.026 62.624 135.23 63.812 135.23 65.228V77H131.378L131.054 74.444C130.418 75.476 129.662 76.244 128.786 76.748C127.922 77.252 126.914 77.504 125.762 77.504ZM127.67 74.048C128.222 74.048 128.804 73.826 129.416 73.382C130.028 72.938 130.514 72.38 130.874 71.708V69.152C130.706 69.128 130.418 69.116 130.01 69.116C128.798 69.116 127.712 69.32 126.752 69.728C125.804 70.124 125.33 70.772 125.33 71.672C125.33 72.524 125.516 73.136 125.888 73.508C126.272 73.868 126.866 74.048 127.67 74.048ZM148.517 58.64C150.305 58.64 151.649 59.21 152.549 60.35C153.461 61.478 153.917 63.08 153.917 65.156V77H149.309V65.552C149.309 64.532 149.093 63.722 148.661 63.122C148.229 62.51 147.593 62.204 146.753 62.204C146.189 62.204 145.661 62.348 145.169 62.636C144.689 62.924 144.305 63.326 144.017 63.842C143.729 64.346 143.585 64.916 143.585 65.552V77H138.977V59.072H143.153L143.243 61.43C144.479 59.57 146.237 58.64 148.517 58.64ZM164.018 77.504C162.578 77.504 161.318 77.114 160.238 76.334C159.17 75.554 158.342 74.456 157.754 73.04C157.178 71.612 156.89 69.956 156.89 68.072C156.89 65.072 157.496 62.75 158.708 61.106C159.932 59.462 161.726 58.64 164.09 58.64C165.326 58.64 166.364 58.946 167.204 59.558C168.044 60.17 168.59 61.04 168.842 62.168L168.518 59.54V49.64H172.766V77H168.842V73.328C168.506 74.612 167.924 75.632 167.096 76.388C166.268 77.132 165.242 77.504 164.018 77.504ZM165.062 73.94C165.662 73.94 166.214 73.736 166.718 73.328C167.234 72.92 167.642 72.284 167.942 71.42C168.254 70.544 168.41 69.452 168.41 68.144C168.41 66.248 168.14 64.796 167.6 63.788C167.06 62.78 166.25 62.276 165.17 62.276C164.546 62.276 163.958 62.462 163.406 62.834C162.866 63.206 162.416 63.824 162.056 64.688C161.708 65.552 161.534 66.68 161.534 68.072C161.534 69.356 161.684 70.436 161.984 71.312C162.296 72.188 162.716 72.848 163.244 73.292C163.784 73.724 164.39 73.94 165.062 73.94ZM183.71 77.468C181.778 77.468 180.182 77.06 178.922 76.244C177.662 75.416 176.738 74.312 176.15 72.932C175.574 71.552 175.286 69.992 175.286 68.252C175.286 66.476 175.61 64.862 176.258 63.41C176.918 61.946 177.878 60.788 179.138 59.936C180.398 59.072 181.898 58.64 183.638 58.64C186.23 58.64 188.084 59.39 189.2 60.89C190.316 62.378 190.874 64.604 190.874 67.568C190.874 68.144 190.85 68.792 190.802 69.512H180.002C180.074 70.964 180.476 72.086 181.208 72.878C181.952 73.658 183.038 74.048 184.466 74.048C185.21 74.048 186.008 73.886 186.86 73.562C187.712 73.226 188.342 72.824 188.75 72.356L190.19 75.776C188.498 76.904 186.338 77.468 183.71 77.468ZM186.302 66.704C186.302 64.94 186.08 63.728 185.636 63.068C185.204 62.396 184.574 62.06 183.746 62.06C182.582 62.06 181.676 62.492 181.028 63.356C180.392 64.22 180.038 65.336 179.966 66.704H186.302ZM195.502 70.376L196.834 68.18L195.466 65.876L191.794 59.072H196.906L199.066 63.608L199.966 65.696L200.902 63.608L203.026 59.072H207.814L204.214 65.732L202.918 68L204.214 70.16L208.102 77H203.026L200.434 72.176L199.642 70.556L198.994 72.176L196.762 77H191.794L195.502 70.376ZM234.383 63.536C234.527 65.024 234.599 66.188 234.599 67.028C234.599 70.22 233.903 72.788 232.511 74.732C231.119 76.676 228.611 77.648 224.987 77.648C222.971 77.648 221.165 77.114 219.569 76.046C217.985 74.978 216.737 73.436 215.825 71.42C214.925 69.392 214.475 66.992 214.475 64.22C214.475 61.76 214.949 59.564 215.897 57.632C216.845 55.7 218.159 54.194 219.839 53.114C221.531 52.022 223.451 51.476 225.599 51.476C227.063 51.476 228.275 51.59 229.235 51.818C230.207 52.046 230.957 52.316 231.485 52.628C232.013 52.94 232.487 53.3 232.907 53.708L230.927 57.704C229.931 56.384 228.179 55.724 225.671 55.724C224.471 55.724 223.385 56.078 222.413 56.786C221.441 57.494 220.679 58.484 220.127 59.756C219.575 61.028 219.299 62.48 219.299 64.112C219.299 66.08 219.533 67.784 220.001 69.224C220.481 70.652 221.153 71.744 222.017 72.5C222.893 73.244 223.907 73.616 225.059 73.616C226.871 73.616 228.173 73.19 228.965 72.338C229.769 71.486 230.171 70.196 230.171 68.468C230.171 68.276 230.159 67.952 230.135 67.496H224.987V63.536H234.383ZM240.968 77.504C239.9 77.504 239 77.264 238.268 76.784C237.536 76.304 236.984 75.656 236.612 74.84C236.252 74.024 236.072 73.112 236.072 72.104C236.072 71.228 236.36 70.358 236.936 69.494C237.524 68.618 238.562 67.874 240.05 67.262C241.538 66.65 243.548 66.344 246.08 66.344V65.516C246.08 64.532 245.84 63.77 245.36 63.23C244.892 62.69 244.064 62.42 242.876 62.42C241.94 62.42 241.022 62.582 240.122 62.906C239.234 63.218 238.58 63.608 238.16 64.076L236.72 60.62C237.536 60.068 238.55 59.6 239.762 59.216C240.974 58.832 242.264 58.64 243.632 58.64C245.348 58.64 246.704 58.904 247.7 59.432C248.708 59.96 249.416 60.704 249.824 61.664C250.232 62.624 250.436 63.812 250.436 65.228V77H246.584L246.26 74.444C245.624 75.476 244.868 76.244 243.992 76.748C243.128 77.252 242.12 77.504 240.968 77.504ZM242.876 74.048C243.428 74.048 244.01 73.826 244.622 73.382C245.234 72.938 245.72 72.38 246.08 71.708V69.152C245.912 69.128 245.624 69.116 245.216 69.116C244.004 69.116 242.918 69.32 241.958 69.728C241.01 70.124 240.536 70.772 240.536 71.672C240.536 72.524 240.722 73.136 241.094 73.508C241.478 73.868 242.072 74.048 242.876 74.048ZM274.126 58.64C275.89 58.64 277.222 59.21 278.122 60.35C279.034 61.478 279.49 63.08 279.49 65.156V77H274.918V65.624C274.918 64.58 274.714 63.764 274.306 63.176C273.91 62.576 273.298 62.276 272.47 62.276C271.906 62.276 271.366 62.42 270.85 62.708C270.346 62.996 269.938 63.398 269.626 63.914C269.314 64.418 269.158 64.988 269.158 65.624V77H264.55V65.624C264.55 64.604 264.322 63.782 263.866 63.158C263.422 62.522 262.786 62.204 261.958 62.204C261.382 62.204 260.854 62.354 260.374 62.654C259.894 62.942 259.51 63.35 259.222 63.878C258.934 64.394 258.79 64.976 258.79 65.624V77H254.182V59.072H258.322L258.43 61.448C259.642 59.576 261.406 58.64 263.722 58.64C264.922 58.64 265.924 58.904 266.728 59.432C267.544 59.96 268.156 60.728 268.564 61.736C269.788 59.672 271.642 58.64 274.126 58.64ZM290.855 77.468C288.923 77.468 287.327 77.06 286.067 76.244C284.807 75.416 283.883 74.312 283.295 72.932C282.719 71.552 282.431 69.992 282.431 68.252C282.431 66.476 282.755 64.862 283.403 63.41C284.063 61.946 285.023 60.788 286.283 59.936C287.543 59.072 289.043 58.64 290.783 58.64C293.375 58.64 295.229 59.39 296.345 60.89C297.461 62.378 298.019 64.604 298.019 67.568C298.019 68.144 297.995 68.792 297.947 69.512H287.147C287.219 70.964 287.621 72.086 288.353 72.878C289.097 73.658 290.183 74.048 291.611 74.048C292.355 74.048 293.153 73.886 294.005 73.562C294.857 73.226 295.487 72.824 295.895 72.356L297.335 75.776C295.643 76.904 293.483 77.468 290.855 77.468ZM293.447 66.704C293.447 64.94 293.225 63.728 292.781 63.068C292.349 62.396 291.719 62.06 290.891 62.06C289.727 62.06 288.821 62.492 288.173 63.356C287.537 64.22 287.183 65.336 287.111 66.704H293.447ZM306.067 77.324C304.351 77.324 303.001 77.114 302.017 76.694C301.045 76.262 300.355 75.8 299.947 75.308L301.279 71.888C302.815 73.16 304.447 73.796 306.175 73.796C306.955 73.796 307.531 73.64 307.903 73.328C308.287 73.004 308.479 72.608 308.479 72.14C308.479 71.636 308.149 71.174 307.489 70.754C306.841 70.322 305.875 69.824 304.591 69.26C303.763 68.9 303.043 68.522 302.431 68.126C301.819 67.73 301.285 67.196 300.829 66.524C300.385 65.84 300.163 65.012 300.163 64.04C300.163 62.96 300.427 62.018 300.955 61.214C301.495 60.41 302.275 59.792 303.295 59.36C304.315 58.928 305.539 58.712 306.967 58.712C307.819 58.712 308.617 58.808 309.361 59C310.117 59.18 310.759 59.408 311.287 59.684C311.815 59.948 312.199 60.2 312.439 60.44L311.215 63.68C310.663 63.26 310.027 62.906 309.307 62.618C308.599 62.318 307.867 62.168 307.111 62.168C306.211 62.168 305.575 62.288 305.203 62.528C304.843 62.756 304.663 63.14 304.663 63.68C304.663 64.22 304.927 64.67 305.455 65.03C305.995 65.39 306.823 65.792 307.939 66.236C309.547 66.872 310.783 67.628 311.647 68.504C312.511 69.368 312.943 70.424 312.943 71.672C312.943 72.716 312.703 73.664 312.223 74.516C311.755 75.356 311.005 76.034 309.973 76.55C308.953 77.066 307.651 77.324 306.067 77.324Z" fill="black"/>
<path d="M114.8 33.52C114.88 34.3467 114.92 34.9933 114.92 35.46C114.92 37.2333 114.533 38.66 113.76 39.74C112.987 40.82 111.593 41.36 109.58 41.36C108.46 41.36 107.457 41.0633 106.57 40.47C105.69 39.8767 104.997 39.02 104.49 37.9C103.99 36.7733 103.74 35.44 103.74 33.9C103.74 32.5333 104.003 31.3133 104.53 30.24C105.057 29.1667 105.787 28.33 106.72 27.73C107.66 27.1233 108.727 26.82 109.92 26.82C110.733 26.82 111.407 26.8833 111.94 27.01C112.48 27.1367 112.897 27.2867 113.19 27.46C113.483 27.6333 113.747 27.8333 113.98 28.06L112.88 30.28C112.327 29.5467 111.353 29.18 109.96 29.18C109.293 29.18 108.69 29.3767 108.15 29.77C107.61 30.1633 107.187 30.7133 106.88 31.42C106.573 32.1267 106.42 32.9333 106.42 33.84C106.42 34.9333 106.55 35.88 106.81 36.68C107.077 37.4733 107.45 38.08 107.93 38.5C108.417 38.9133 108.98 39.12 109.62 39.12C110.627 39.12 111.35 38.8833 111.79 38.41C112.237 37.9367 112.46 37.22 112.46 36.26C112.46 36.1533 112.453 35.9733 112.44 35.72H109.58V33.52H114.8ZM124.278 38.74V41H116.598V27.06H123.878V29.24H119.098V32.5H122.898V34.62H119.098V38.74H124.278ZM133.875 29.32H130.655V41H128.075V29.32H124.855V27.06H133.875V29.32ZM138.47 27.06H141.03V41H138.47V27.06ZM151.431 29.32H148.211V41H145.631V29.32H142.411V27.06H151.431V29.32ZM161.005 41.24C159.765 41.24 158.709 40.9467 157.835 40.36C156.962 39.7667 156.302 38.93 155.855 37.85C155.409 36.7633 155.185 35.4867 155.185 34.02C155.185 32.5667 155.405 31.3 155.845 30.22C156.292 29.1333 156.945 28.2967 157.805 27.71C158.672 27.1167 159.719 26.82 160.945 26.82C162.219 26.82 163.292 27.12 164.165 27.72C165.039 28.3133 165.692 29.15 166.125 30.23C166.565 31.31 166.785 32.5733 166.785 34.02C166.785 35.4867 166.559 36.7633 166.105 37.85C165.659 38.93 165.002 39.7667 164.135 40.36C163.269 40.9467 162.225 41.24 161.005 41.24ZM161.005 39.1C161.599 39.1 162.129 38.91 162.595 38.53C163.069 38.15 163.442 37.5733 163.715 36.8C163.989 36.0267 164.125 35.08 164.125 33.96C164.125 32.3133 163.845 31.06 163.285 30.2C162.732 29.3333 161.952 28.9 160.945 28.9C159.965 28.9 159.205 29.3333 158.665 30.2C158.132 31.06 157.865 32.32 157.865 33.98C157.865 35.1133 157.992 36.0633 158.245 36.83C158.505 37.59 158.869 38.16 159.335 38.54C159.809 38.9133 160.365 39.1 161.005 39.1ZM178.51 27.06V41.28H178.31L171.63 33.66L171.01 32.86L171.11 34.8V41H168.65V26.82H168.87L175.45 34.5L176.15 35.41L176.05 33.5V27.06H178.51Z" fill="black"/>
<defs>
<filter id="filter0_d_2_4" x="-0.257124" y="13.9838" width="100.756" height="73.2752" filterUnits="userSpaceOnUse" color-interpolation-filters="sRGB">
<feFlood flood-opacity="0" result="BackgroundImageFix"/>
<feColorMatrix in="SourceAlpha" type="matrix" values="0 0 0 0 0 0 0 0 0 0 0 0 0 0 0 0 0 0 127 0" result="hardAlpha"/>
<feOffset dy="1.6827"/>
<feGaussianBlur stdDeviation="1.6827"/>
<feColorMatrix type="matrix" values="0 0 0 0 0.758333 0 0 0 0 0.3185 0 0 0 0 0 0 0 0 0.49 0"/>
<feBlend mode="multiply" in2="BackgroundImageFix" result="effect1_dropShadow_2_4"/>
<feBlend mode="normal" in="SourceGraphic" in2="effect1_dropShadow_2_4" result="shape"/>
</filter>
<linearGradient id="paint0_linear_2_4" x1="44.213" y1="34.1456" x2="69.4975" y2="95.7692" gradientUnits="userSpaceOnUse">
<stop stop-color="#FFD86A"/>
<stop offset="1" stop-color="#FFB63C"/>
</linearGradient>
<linearGradient id="paint1_linear_2_4" x1="41.6232" y1="27.6383" x2="59.174" y2="70.4053" gradientUnits="userSpaceOnUse">
<stop stop-color="#FFE37C"/>
<stop offset="1" stop-color="#FFA919"/>
</linearGradient>
<linearGradient id="paint2_linear_2_4" x1="41.6232" y1="27.6383" x2="59.174" y2="70.4053" gradientUnits="userSpaceOnUse">
<stop stop-color="#FFE37C"/>
<stop offset="1" stop-color="#FFA919"/>
</linearGradient>
<linearGradient id="paint3_linear_2_4" x1="41.6232" y1="27.6383" x2="59.174" y2="70.4053" gradientUnits="userSpaceOnUse">
<stop stop-color="#FFE688"/>
<stop offset="1" stop-color="#FFA919"/>
</linearGradient>
<linearGradient id="paint4_linear_2_4" x1="41.6232" y1="27.6383" x2="59.174" y2="70.4053" gradientUnits="userSpaceOnUse">
<stop stop-color="#FFE688"/>
<stop offset="1" stop-color="#FFA919"/>
</linearGradient>
<linearGradient id="paint5_linear_2_4" x1="45.4215" y1="34.9852" x2="56.7218" y2="62.4855" gradientUnits="userSpaceOnUse">
<stop stop-color="#444444"/>
<stop offset="1" stop-color="#222222"/>
</linearGradient>
<linearGradient id="paint6_linear_2_4" x1="96.2853" y1="12.105" x2="108.963" y2="43.0214" gradientUnits="userSpaceOnUse">
<stop stop-color="#444444"/>
<stop offset="1" stop-color="#222222"/>
</linearGradient>
<clipPath id="clip0_2_4">
<rect width="76" height="77" fill="white" transform="translate(15 12)"/>
</clipPath>
</defs>
</svg>
